<svg id="Layer_1" xmlns="http://www.w3.org/2000/svg" viewBox="0 0 512 512"><style>.st0{fill:#fff}</style><path class="st0" d="M208.1 362.5c-15.6-10.1-36.4-5.6-46.5 10 10.1-15.6 5.6-36.4-10-46.5-15.6-10.1-36.4-5.6-46.5 10 10.1-15.6 5.6-36.4-10-46.5-15.6-10.1-36.4-5.6-46.5 10l-34.5 53.4c-10.1 15.6-5.6 36.4 10 46.5 15.6 10.1 36.4 5.6 46.5-10-10.1 15.6-5.6 36.4 10 46.5 15.6 10.1 36.4 5.6 46.5-10-10.1 15.6-5.6 36.4 10 46.5s36.4 5.6 46.5-10l34.5-53.4c10-15.6 5.6-36.4-10-46.5z"/><path class="st0" d="M436.6 270.5l-.9-.6-171.4-111.6-27.3 41.5c-12.2 18.8-32.8 30-55.3 30-12.7 0-25-3.6-35.7-10.5-30.5-19.7-39.3-60.6-19.6-91l16.4-25.5-57.5-14L0 264.9l20.9 18 .6-.9c12.2-18.9 32.9-30.1 55.4-30.1 12.7 0 25 3.6 35.7 10.5 10.1 6.5 18.1 15.5 23.3 26 11.8.4 23.3 4.1 33.2 10.5 10.1 6.5 18.1 15.5 23.3 26 11.8.4 23.3 4.1 33.2 10.5 30.5 19.7 39.3 60.6 19.6 91.1l-18.3 28.3 28.3 18.8c15.6 10.1 36.4 5.6 46.5-10 10.1-15.6 5.6-36.4-10-46.5l11.4 7.4c15.6 10.1 36.4 5.6 46.5-10 10.1-15.6 5.6-36.4-10-46.5l11.4 7.4c15.6 10.1 36.4 5.6 46.5-10 10.1-15.6 5.6-36.4-10-46.5l11.4 7.4c15.6 10.1 36.4 5.6 46.5-10 10-15.3 5.9-35.5-8.8-45.8z"/><path class="st0" d="M467.1 33L221 40.9l-67.4 104.7c-10.1 15.6-5.6 36.4 10 46.5 15.6 10.1 36.4 5.6 46.5-10l45-68.3 9.9 6.4 177.6 115.7 69.5-51.5-45-151.4z"/></svg>