<svg id="Capa_1" xmlns="http://www.w3.org/2000/svg" viewBox="0 0 512 512"><style>.st0{fill:#fff}</style><path class="st0" d="M408.5 207v-59.8H366v-32.3h-30v32.3h-42.5V207H271V93h-36.4V34h-48.7V0h-30v34h-48.7v59H70.8v419h370.3V207h-32.6zM157.4 457.3h-30V427h30v30.3zm0-56h-30V371h30v30.3zm0-56h-30V315h30v30.3zm0-56h-30V259h30v30.3zm0-56h-30V203h30v30.3zm0-56h-30V147h30v30.3zm57 280h-30V427h30v30.3zm0-56h-30V371h30v30.3zm0-56h-30V315h30v30.3zm0-56h-30V259h30v30.3zm0-56h-30V203h30v30.3zm0-56h-30V147h30v30.3zm120.5 280h-30V427h30v30.3zm0-56h-30V371h30v30.3zm0-56h-30V315h30v30.3zm0-56h-30V259h30v30.3zm57 168h-30V427h30v30.3zm0-56h-30V371h30v30.3zm0-56h-30V315h30v30.3zm0-56h-30V259h30v30.3z"/></svg>