<svg id="Capa_1" xmlns="http://www.w3.org/2000/svg" viewBox="0 0 612 612"><style>.st0{fill:#fff}</style><path class="st0" d="M181.3 386.3c-29.8 0-53.9 24.1-53.9 53.8 0 29.8 24.1 53.9 53.9 53.9 29.7 0 53.8-24.1 53.8-53.9 0-29.7-24.1-53.8-53.8-53.8zm0 80.8c-14.9 0-27-12.1-27-27 0-14.8 12.1-26.9 27-26.9 14.8 0 26.9 12.1 26.9 26.9 0 14.9-12.1 27-26.9 27zm-46.4-80.8H14.2c-4.8 0-8.7 3.9-8.7 8.7v26.3c0 4.8 3.9 8.7 8.7 8.7h96.7c2.6-17.5 11.3-32.8 24-43.7zm328.1 0c-29.7 0-53.8 24.1-53.8 53.8 0 29.8 24.1 53.9 53.8 53.9 29.8 0 53.8-24.1 53.8-53.9 0-29.7-24-53.8-53.8-53.8zm0 80.8c-14.9 0-26.9-12.1-26.9-27 0-14.8 12-26.9 26.9-26.9 14.9 0 26.9 12.1 26.9 26.9 0 14.9-12 27-26.9 27zm140.3-80.8h-21V268.7c0-13.8-4.2-27.3-11.9-38.7l-52.7-78.1c-12.8-19-34.4-30.5-57.4-30.5h-81.7c-9.5 0-17.3 7.7-17.3 17.3v247.5H227.7c12.6 11 21.4 26.2 23.9 43.6h141.1c4.9-34.4 34.5-60.9 70.3-60.9 35.7 0 65.3 26.6 70.4 60.9h70c4.8 0 8.7-3.9 8.7-8.7v-26.3c-.1-4.6-3.9-8.5-8.8-8.5zm-86.1-140.7H409.3c-4.8 0-8.7-3.8-8.7-8.7v-59.8c0-4.8 3.9-8.7 8.7-8.7H475c2.9 0 5.5 1.4 7.1 3.6l42.1 59.9c4.1 5.8 0 13.7-7 13.7zM320.2 369H17.3C7.7 369 0 361.2 0 351.6v-77.9c0-9.6 7.7-17.3 17.3-17.3h302.9c9.6 0 17.3 7.7 17.3 17.3v77.9c0 9.6-7.7 17.4-17.3 17.4zM138.5 230.5H17.3c-9.6 0-17.3-7.8-17.3-17.3v-77.9c0-9.6 7.7-17.3 17.3-17.3h121.2c9.6 0 17.3 7.7 17.3 17.3v77.9c0 9.5-7.8 17.3-17.3 17.3zm181.7 0H199c-9.6 0-17.3-7.7-17.3-17.3v-77.9c0-9.6 7.7-17.3 17.3-17.3h121.2c9.6 0 17.3 7.7 17.3 17.3v77.9c0 9.5-7.7 17.3-17.3 17.3z"/></svg>