<svg id="Capa_1" xmlns="http://www.w3.org/2000/svg" viewBox="0 0 504.3 504.3"><style>.st0{fill:#fff}</style><path class="st0" d="M478.8 125.8l-364-.1-15.3-52.5c-2.3-7.8-8.6-14-16.4-16.1L29.7 42.6c-2-.5-4.1-.8-6.1-.8C13 41.8 3.7 49 .9 59.2-.8 65.2 0 71.6 3.1 77s8.2 9.4 14.3 11L58 99l82.5 297.5c-11.7 5.8-19.4 17.8-19.4 31.2 0 19.2 15.6 34.8 34.8 34.8s34.8-15.6 34.8-34.8v-1.4h167.9v1.4c0 19.2 15.6 34.8 34.8 34.8s34.8-15.6 34.8-34.8c0-17.6-13.4-32.4-30.6-34.5-41.7-6.7-212.1-15-212.1-15l-5.6-21.9h212.5c10.9 0 20.5-7.3 23.5-17.8l45.9-161.8h16.9c14.1 0 25.5-11.4 25.5-25.5s-11.4-25.4-25.4-25.4zM208.1 302.2h-39.8c-1.1 0-2.7.2-3.4-2.3-.9-3.3-2.2-7.7-2.2-7.7l-31.2-110c-.2-.5 0-1.1.3-1.6.3-.4.9-.7 1.4-.7h48.4c.8 0 1.6.6 1.7 1.4l26.4 118.2.1.4c.1.2.1.3.1.5-.1 1-.9 1.8-1.8 1.8zM309.7 182l-21.5 118.7c-.2.8-.9 1.4-1.7 1.4h-30c-.8 0-1.6-.6-1.7-1.4L233.1 182c-.1-.5 0-1.1.4-1.5.3-.4.9-.7 1.4-.7H308c.5 0 1.1.2 1.4.7.3.4.4 1 .3 1.5zm101.8.1l-33.7 118.7c-.2.8-.9 1.3-1.7 1.3h-41.2c-.5 0-1.1-.2-1.4-.7-.3-.4-.5-1-.4-1.5l26.5-118.7c.2-.8.9-1.4 1.7-1.4h48.4c.6 0 1.1.3 1.4.7.5.5.6 1.1.4 1.6z"/></svg>