<svg id="Слой_1" xmlns="http://www.w3.org/2000/svg" viewBox="0 0 297 297"><style>.st0{fill:#fff}</style><path class="st0" d="M148.5 117.2c32.3 0 58.6-26.3 58.6-58.6S180.8 0 148.5 0 89.9 26.3 89.9 58.6s26.3 58.6 58.6 58.6zm78.7 28.4c-.1 0-.1 0 0 0-7.7-1.9-31.1-5.2-31.1-5.2-2.6-.8-5.5.6-6.4 3.2l-35.2 96.5c-2 5.6-9.9 5.6-11.9 0l-35.2-96.5c-.8-2.1-2.8-3.4-4.9-3.4-.5 0-24.5 3.4-32.5 5.4-21.9 5.4-35.6 26.9-35.6 49.3v80.3c0 12 9.8 21.8 21.8 21.8H241c12 0 21.8-9.8 21.8-21.8v-80.6c-.1-22.3-14.4-42.1-35.6-49z"/><path class="st0" d="M161.8 138.6c-1.4-1.5-3.5-2.3-5.5-2.3h-15.5c-2.1 0-4.1.8-5.5 2.3-2.2 2.4-2.5 5.8-.9 8.5l8.3 12.5-3.9 32.7 7.6 20.3c.7 2 3.6 2 4.4 0l7.6-20.3-3.9-32.7 8.3-12.5c1.5-2.7 1.1-6.1-1-8.5z"/></svg>