<svg id="Layer_1" xmlns="http://www.w3.org/2000/svg" viewBox="0 0 512 512"><style>.st0{fill:#fff}</style><path class="st0" d="M361.7 278.3c-27.7 0-50.1 22.4-50.1 50.1s22.4 50.1 50.1 50.1H512V278.3H361.7zm0 66.7c-9.2 0-16.7-7.5-16.7-16.7s7.5-16.7 16.7-16.7 16.7 7.5 16.7 16.7S371 345 361.7 345z"/><path class="st0" d="M361.7 244.9h83.5v-50.1c0-27.6-22.5-50.1-50.1-50.1H16.7c-9.2 0-16.7 7.5-16.7 16.7v333.9c0 9.2 7.5 16.7 16.7 16.7h378.4c27.6 0 50.1-22.5 50.1-50.1v-50.1h-83.5c-46 0-83.5-37.4-83.5-83.5.1-46 37.5-83.4 83.5-83.4zm100.2-100.2h-.2c10.5 14 16.9 31.3 16.9 50.1v50.1H512v-50.1c0-27.6-22.5-50.1-50.1-50.1zm16.7 267.1v50.1c0 18.8-6.3 36.1-16.9 50.1h.2c27.6 0 50.1-22.5 50.1-50.1v-50.1h-33.4zM273.4 4.9c-6.5-6.5-17.1-6.5-23.6 0l-14.7 14.7 91.7 91.7h53L273.4 4.9zm-100.2 0c-6.5-6.5-17.1-6.5-23.6 0L43.2 111.3h236.4L173.2 4.9z"/></svg>