<svg id="Capa_1" xmlns="http://www.w3.org/2000/svg" viewBox="0 0 612 612"><style>.st0{fill:#fff}</style><path class="st0" d="M305 224.1v252.2l200.8-38.1V315.3c0-5.1 4.5-9.1 9.6-8.6l24.7 3.8c4.3.5 7.6 4.2 7.6 8.6v142.7c0 4.1-2.8 7.6-6.8 8.4l-219.8 47.3c-10.6 2.3-21.6 2.3-32.2.1L71.5 471.9c-3.9-.8-6.7-4.2-6.8-8.2l-3.8-145c-.1-4.5 3.3-8.4 7.9-8.8l184.7-16.2c3.2-.3 6-2.3 7.2-5.3l27.8-67.6c3.5-8.7 16.5-6.2 16.5 3.3zM58.8 141.5L.8 265.4c-2.8 6.1 2 12.9 8.7 12.2l217.7-22c3.1-.3 5.7-2.2 7-5.1l70-157.8-239.2 44c-2.7.5-5 2.3-6.2 4.8zm245.4-48.8l74.1 162.7c1.3 2.8 4 4.8 7.1 5l217.2 17.5c6.5.5 11.2-6.2 8.5-12.2l-56.7-124.2c-1.2-2.6-3.5-4.4-6.3-4.9L304.2 92.7z"/></svg>