<svg id="Capa_1" xmlns="http://www.w3.org/2000/svg" viewBox="0 0 297 297"><style>.st0{fill:#fff}</style><path class="st0" d="M291.2 78.8l-138-69c-2.9-1.5-6.4-1.5-9.4 0l-138 69C2.2 80.5 0 84.1 0 88.1v189.8c0 5.8 4.7 10.5 10.5 10.5H45c5.8 0 10.5-4.7 10.5-10.5V115.8h186.1v162.1c0 5.8 4.7 10.5 10.5 10.5h34.5c5.8 0 10.5-4.7 10.5-10.5V88.1c-.1-4-2.3-7.6-5.9-9.3zm-15.1 188.7h-13.6V105.4c0-5.8-4.7-10.5-10.5-10.5H45c-5.8 0-10.5 4.7-10.5 10.5v162.1H20.9V94.6l127.6-63.8 127.6 63.8v172.9z"/><path class="st0" d="M217.5 132.6h-69c-4 0-7.3 3.3-7.3 7.3v61.7H79.5c-4 0-7.3 3.3-7.3 7.3v69c0 4 3.3 7.3 7.3 7.3h138c4 0 7.3-3.3 7.3-7.3v-138c0-4.1-3.2-7.3-7.3-7.3zm-61.7 94l16.8 16.8-16.8 16.8v-33.6zm-14.6 33.6l-16.8-16.8 16.8-16.8v33.6zm25-44h33.7L183 233.1l-16.8-16.9zm0-14.6l16.8-16.8 16.8 16.8h-33.6zm44-10.4l-16.8-16.8 16.8-16.8v33.6zM183 164l-16.8-16.8h33.7L183 164zm-10.3 10.4l-16.8 16.8v-33.7l16.8 16.9zM114 233.1l-16.8-16.8h33.7L114 233.1zm-10.4 10.3l-16.8 16.8v-33.7l16.8 16.9zm10.4 10.4l16.8 16.8H97.2l16.8-16.8zm69 0l16.8 16.8h-33.7l16.9-16.8zm10.4-10.4l16.8-16.8v33.7l-16.8-16.9z"/></svg>