<svg id="Capa_1" xmlns="http://www.w3.org/2000/svg" viewBox="0 0 612 612"><style>.st0{fill:#fff}</style><path class="st0" d="M516.3 337.5l94.2 193.6c3.8 7.9-.2 14.3-9 14.3H10.4c-8.8 0-12.8-6.4-9-14.3l94.2-193.6c1.5-3.1 5.5-5.6 9-5.6h80.8c2.5 0 5.9 1.6 7.5 3.4 5.5 6.3 11.1 12.5 16.6 18.6 5.3 5.8 10.6 11.7 15.9 17.7h-95.9c-3.4 0-7.5 2.5-9 5.6L58.2 505.6h495.7l-62.4-128.2c-1.5-3.1-5.5-5.6-9-5.6h-96.1c5.3-6 10.6-11.9 15.9-17.7 5.6-6.1 11.2-12.3 16.7-18.7 1.6-1.9 5-3.4 7.5-3.4h81c3.3-.1 7.3 2.4 8.8 5.5zm-71.8-132.3c0 105.8-88.1 125.6-129.5 227.3-3.4 8.3-15 8.2-18.4 0-37.4-91.7-112.6-116.8-127-198.4C155.4 153.7 211.1 75 292.3 67.3c82.7-7.9 152.2 56.9 152.2 137.9zm-65.4 0c0-40.4-32.8-73.2-73.2-73.2s-73.2 32.8-73.2 73.2c0 40.4 32.8 73.2 73.2 73.2s73.2-32.7 73.2-73.2z"/></svg>