<svg id="Capa_1" xmlns="http://www.w3.org/2000/svg" viewBox="0 0 612 612"><style>.st0{fill:#fff}</style><path class="st0" d="M391.9 259.9c-.7-6.1-3.1-11.7-6.6-16.3l24.5-152.2c.9-5.7-2.7-11.1-8.3-12.4l-.3-.1c-5.6-1.3-11.2 2-12.9 7.5l-44.7 147.5c-11 5.5-18.7 16.8-18.7 30 0 18.6 15.1 33.7 33.6 33.7 3.5 0 6.7-.7 9.9-1.6l93.3 48.5c5.1 2.7 11.5 1 14.6-3.9l.1-.2c3.2-4.9 2.1-11.3-2.4-14.9l-82.1-65.6zm-49.9 4c0-9.2 7.5-16.6 16.6-16.6 9.2 0 16.6 7.5 16.6 16.6 0 9.2-7.5 16.6-16.6 16.6-9.1 0-16.6-7.5-16.6-16.6zm270 0c0 112.7-73.9 208.3-175.8 241.2V469C519 437.6 578 357.5 578 263.9 578 143 479.6 44.6 358.7 44.6S139.4 143 139.4 263.9c0 12.1 1 24 2.9 35.6h-34.4c-1.6-11.6-2.6-23.5-2.6-35.6 0-139.7 113.7-253.4 253.4-253.4C498.3 10.5 612 124.2 612 263.9zM402.8 444.4l-78-77.1c-4.9-4.9-11.7-7.7-18.6-7.7h-39.3v-14.7c0-11-8.9-19.8-19.9-19.8H19.8C8.9 325 0 333.9 0 344.9v132.8h410.6v-14.5c0-7.1-2.8-13.9-7.8-18.8zm-34 2.6h-75.5c-1.7 0-3.1-1.4-3.1-3.1v-58.3c0-1.7 1.4-3.1 3.1-3.1h14.4c.8 0 1.6.3 2.2.9l61 58.3c2.1 1.8.7 5.3-2.1 5.3zm41.9 41.7v43.9c0 11-8.9 19.8-19.8 19.8h-21.2c-3.8-26.3-26.5-46.6-53.9-46.6-27.3 0-50 20.2-53.9 46.6H154.2c-3.8-26.3-26.5-46.6-53.9-46.6s-50 20.2-53.9 46.6H19.8c-11 0-19.8-8.9-19.8-19.8v-43.9h410.7zm-95 30.5c-22.7 0-41.2 18.4-41.2 41.1 0 22.7 18.5 41.2 41.2 41.2 22.7 0 41.1-18.5 41.1-41.2 0-22.8-18.4-41.1-41.1-41.1zm0 61.7c-11.4 0-20.6-9.2-20.6-20.6 0-11.3 9.2-20.6 20.6-20.6 11.3 0 20.5 9.3 20.5 20.6 0 11.4-9.2 20.6-20.5 20.6zm-215.4-61.7c-22.7 0-41.2 18.4-41.2 41.1 0 22.7 18.5 41.2 41.2 41.2 22.7 0 41.1-18.5 41.1-41.2 0-22.8-18.4-41.1-41.1-41.1zm0 61.7c-11.4 0-20.6-9.2-20.6-20.6 0-11.3 9.2-20.6 20.6-20.6 11.3 0 20.6 9.3 20.6 20.6 0 11.4-9.3 20.6-20.6 20.6z"/></svg>