<svg xmlns="http://www.w3.org/2000/svg" viewBox="0 0 512 512"><path d="M361.739 278.261c-27.664 0-50.087 22.423-50.087 50.087s22.423 50.087 50.087 50.087H512V278.261H361.739zm0 66.782c-9.22 0-16.696-7.475-16.696-16.696s7.475-16.696 16.696-16.696 16.696 7.475 16.696 16.696-7.475 16.696-16.696 16.696z"/><path d="M361.739 244.87h83.478v-50.087c0-27.619-22.468-50.087-50.087-50.087H16.696C7.479 144.696 0 152.174 0 161.391v333.913C0 504.521 7.479 512 16.696 512H395.13c27.619 0 50.087-22.468 50.087-50.087v-50.087h-83.478c-46.032 0-83.478-37.446-83.478-83.478s37.446-83.478 83.478-83.478zm100.174-100.174h-.158c10.529 13.973 16.854 31.282 16.854 50.087v50.087H512v-50.087c0-27.619-22.468-50.087-50.087-50.087zm16.696 267.13v50.087c0 18.805-6.323 36.114-16.854 50.087h.158C489.532 512 512 489.532 512 461.913v-50.087h-33.391zM273.369 4.892c-6.521-6.521-17.087-6.521-23.609 0l-14.674 14.674 91.74 91.738h52.956L273.369 4.892zm-100.174 0c-6.521-6.522-17.086-6.522-23.608 0L43.174 111.304h236.435L173.195 4.892z"/></svg>