<svg xmlns="http://www.w3.org/2000/svg" width="612" height="612" viewBox="0 0 612 612"><path d="M391.897 259.865c-.737-6.115-3.061-11.692-6.633-16.349l24.524-152.198a10.898 10.898 0 0 0-8.308-12.353l-.274-.062a10.898 10.898 0 0 0-12.882 7.46l-44.676 147.543c-11.01 5.536-18.653 16.821-18.653 29.964 0 18.558 15.091 33.658 33.648 33.658 3.458 0 6.728-.675 9.869-1.647l93.334 48.503a11.237 11.237 0 0 0 14.607-3.852l.141-.217a11.235 11.235 0 0 0-2.424-14.91l-82.273-65.54zm-49.874 4.005c0-9.163 7.458-16.621 16.621-16.621 9.171 0 16.629 7.458 16.629 16.621 0 9.17-7.458 16.629-16.629 16.629-9.163 0-16.621-7.458-16.621-16.629zm269.977 0c0 112.658-73.93 208.333-175.809 241.169l-.005-36.076c82.756-31.396 141.757-111.467 141.757-205.093 0-120.92-98.38-219.299-219.299-219.299-120.92 0-219.299 98.379-219.299 219.299 0 12.13 1.034 24.019 2.938 35.62h-34.441c-1.646-11.646-2.554-23.527-2.554-35.62 0-139.703 113.653-253.356 253.356-253.356C498.347 10.514 612 124.167 612 263.87zM402.81 444.398l-77.99-77.139c-4.938-4.939-11.664-7.664-18.561-7.664h-39.336v-14.729c0-10.984-8.939-19.838-19.923-19.838H19.841A19.803 19.803 0 0 0 .003 344.866v132.82h410.641v-14.473c-.001-7.065-2.811-13.877-7.834-18.815zm-33.972 2.555h-75.521a3.053 3.053 0 0 1-3.065-3.066v-58.322a3.052 3.052 0 0 1 3.065-3.066h14.389c.767 0 1.618.342 2.214.852l61.047 58.324c2.043 1.87.68 5.278-2.129 5.278zm41.814 41.707v43.941c0 10.961-8.886 19.848-19.848 19.848h-21.237c-3.837-26.332-26.53-46.576-53.919-46.576-27.325 0-50.017 20.244-53.854 46.576H154.151c-3.837-26.332-26.53-46.576-53.854-46.576-27.324 0-50.017 20.244-53.854 46.576H19.848C8.886 552.447 0 543.562 0 532.602V488.66h410.652zm-94.943 30.492c-22.732 0-41.208 18.391-41.208 41.123 0 22.734 18.476 41.211 41.208 41.211 22.733 0 41.124-18.477 41.124-41.211 0-22.732-18.391-41.123-41.124-41.123zm0 61.729a20.567 20.567 0 0 1-20.604-20.605c0-11.324 9.195-20.604 20.604-20.604 11.324 0 20.52 9.279 20.52 20.604 0 11.41-9.196 20.605-20.52 20.605zM100.3 519.152c-22.732 0-41.209 18.391-41.209 41.123 0 22.734 18.477 41.211 41.209 41.211 22.733 0 41.124-18.477 41.124-41.211 0-22.732-18.391-41.123-41.124-41.123zm0 61.729a20.566 20.566 0 0 1-20.604-20.605c0-11.324 9.195-20.604 20.604-20.604 11.324 0 20.604 9.279 20.604 20.604 0 11.41-9.28 20.605-20.604 20.605z"/></svg>