<svg xmlns="http://www.w3.org/2000/svg" viewBox="0 0 512 512"><path d="M408.5 207v-59.833h-42.459v-32.27h-30v32.27h-42.46V207H271V93h-36.419V34h-48.667V0h-30v34h-48.666v59h-36.42v419h370.344V207H408.5zM157.414 457.333h-30V427h30v30.333zm0-56h-30V371h30v30.333zm0-56h-30V315h30v30.333zm0-56h-30V259h30v30.333zm0-56h-30V203h30v30.333zm0-56h-30V147h30v30.333zm57 280h-30V427h30v30.333zm0-56h-30V371h30v30.333zm0-56h-30V315h30v30.333zm0-56h-30V259h30v30.333zm0-56h-30V203h30v30.333zm0-56h-30V147h30v30.333zm120.505 280h-30V427h30v30.333zm0-56h-30V371h30v30.333zm0-56h-30V315h30v30.333zm0-56h-30V259h30v30.333zm57 168h-30V427h30v30.333zm0-56h-30V371h30v30.333zm0-56h-30V315h30v30.333zm0-56h-30V259h30v30.333z"/></svg>