<svg xmlns="http://www.w3.org/2000/svg" width="504.256" height="504.256" viewBox="0 0 504.256 504.256"><path d="M478.755 125.762l-363.982-.063-15.256-52.523c-2.274-7.831-8.578-14.018-16.45-16.147L29.673 42.591a23.569 23.569 0 0 0-6.149-.82c-10.596 0-19.93 7.15-22.698 17.388a23.364 23.364 0 0 0 2.31 17.856 23.365 23.365 0 0 0 14.258 10.993l40.631 10.987 82.486 297.522a34.753 34.753 0 0 0-19.367 31.184c0 19.18 15.604 34.783 34.783 34.783 19.179 0 34.784-15.604 34.784-34.783 0-.453-.009-.904-.026-1.357h167.917c-.019.453-.026.906-.026 1.357 0 19.18 15.604 34.783 34.784 34.783s34.783-15.604 34.783-34.783c0-17.629-13.402-32.408-30.554-34.518-41.737-6.74-212.073-14.977-212.073-14.977l-5.595-21.894h212.53c10.866 0 20.526-7.302 23.495-17.754l45.93-161.797h16.88c14.083 0 25.5-11.417 25.5-25.5s-11.418-25.499-25.501-25.499zM208.05 302.168h-39.839c-1.089-.02-2.688.231-3.417-2.332-.926-3.254-2.223-7.725-2.223-7.725l-31.223-109.99a1.796 1.796 0 0 1 .293-1.564 1.8 1.8 0 0 1 1.43-.712h48.418c.844 0 1.562.575 1.745 1.399l26.407 118.246.096.365a1.793 1.793 0 0 1-1.687 2.313zm101.668-120.143l-21.519 118.746a1.775 1.775 0 0 1-1.744 1.396h-30.05a1.782 1.782 0 0 1-1.748-1.398L233.14 182.021a1.773 1.773 0 0 1 .352-1.506 1.78 1.78 0 0 1 1.395-.669h73.084c.546 0 1.055.244 1.397.672.342.424.469.975.35 1.507zm101.793.1l-33.709 118.742a1.8 1.8 0 0 1-1.722 1.304h-41.227a1.788 1.788 0 0 1-1.747-2.181l26.517-118.745a1.802 1.802 0 0 1 1.748-1.398h48.417c.558 0 1.091.265 1.427.71.338.444.447 1.03.296 1.568z"/></svg>