<?xml version="1.0" encoding="utf-8"?>
<!-- Generator: Adobe Illustrator 21.0.1, SVG Export Plug-In . SVG Version: 6.00 Build 0)  -->
<svg version="1.1" id="Слой_1" xmlns="http://www.w3.org/2000/svg" xmlns:xlink="http://www.w3.org/1999/xlink" x="0px" y="0px"
	 viewBox="0 0 297 297" style="enable-background:new 0 0 297 297;" xml:space="preserve">
<style type="text/css">
	.st0{fill:#FFFFFF;}
</style>
<g>
	<path class="st0" d="M148.5,117.2c32.3,0,58.6-26.3,58.6-58.6S180.8,0,148.5,0S89.9,26.3,89.9,58.6S116.2,117.2,148.5,117.2z"/>
	<path class="st0" d="M227.2,145.6C227.1,145.6,227.1,145.6,227.2,145.6c-7.7-1.9-31.1-5.2-31.1-5.2c-2.6-0.8-5.5,0.6-6.4,3.2
		l-35.2,96.5c-2,5.6-9.9,5.6-11.9,0l-35.2-96.5c-0.8-2.1-2.8-3.4-4.9-3.4c-0.5,0-24.5,3.4-32.5,5.4c-21.9,5.4-35.6,26.9-35.6,49.3
		v80.3c0,12,9.8,21.8,21.8,21.8h184.8c12,0,21.8-9.8,21.8-21.8v-80.6C262.7,172.3,248.4,152.5,227.2,145.6L227.2,145.6z"/>
	<path class="st0" d="M161.8,138.6c-1.4-1.5-3.5-2.3-5.5-2.3h-15.5c-2.1,0-4.1,0.8-5.5,2.3c-2.2,2.4-2.5,5.8-0.9,8.5l8.3,12.5
		l-3.9,32.7l7.6,20.3c0.7,2,3.6,2,4.4,0l7.6-20.3l-3.9-32.7l8.3-12.5C164.3,144.4,163.9,141,161.8,138.6z"/>
</g>
</svg>
