<?xml version="1.0" encoding="utf-8"?>
<!-- Generator: Adobe Illustrator 21.0.1, SVG Export Plug-In . SVG Version: 6.00 Build 0)  -->
<svg version="1.1" id="Capa_1" xmlns="http://www.w3.org/2000/svg" xmlns:xlink="http://www.w3.org/1999/xlink" x="0px" y="0px"
	 viewBox="0 0 504.3 504.3" style="enable-background:new 0 0 504.3 504.3;" xml:space="preserve">
<style type="text/css">
	.st0{fill:#FFFFFF;}
</style>
<g>
	<path class="st0" d="M478.8,125.8l-364-0.1L99.5,73.2c-2.3-7.8-8.6-14-16.4-16.1L29.7,42.6c-2-0.5-4.1-0.8-6.1-0.8
		c-10.6,0-19.9,7.2-22.7,17.4C-0.8,65.2,0,71.6,3.1,77c3.1,5.4,8.2,9.4,14.3,11L58,99l82.5,297.5c-11.7,5.8-19.4,17.8-19.4,31.2
		c0,19.2,15.6,34.8,34.8,34.8s34.8-15.6,34.8-34.8c0-0.5,0-0.9,0-1.4h167.9c0,0.5,0,0.9,0,1.4c0,19.2,15.6,34.8,34.8,34.8
		s34.8-15.6,34.8-34.8c0-17.6-13.4-32.4-30.6-34.5c-41.7-6.7-212.1-15-212.1-15l-5.6-21.9h212.5c10.9,0,20.5-7.3,23.5-17.8
		l45.9-161.8h16.9c14.1,0,25.5-11.4,25.5-25.5S492.8,125.8,478.8,125.8z M208.1,302.2h-39.8c-1.1,0-2.7,0.2-3.4-2.3
		c-0.9-3.3-2.2-7.7-2.2-7.7l-31.2-110c-0.2-0.5,0-1.1,0.3-1.6c0.3-0.4,0.9-0.7,1.4-0.7h48.4c0.8,0,1.6,0.6,1.7,1.4l26.4,118.2
		l0.1,0.4c0.1,0.2,0.1,0.3,0.1,0.5C209.8,301.4,209,302.2,208.1,302.2z M309.7,182l-21.5,118.7c-0.2,0.8-0.9,1.4-1.7,1.4h-30
		c-0.8,0-1.6-0.6-1.7-1.4L233.1,182c-0.1-0.5,0-1.1,0.4-1.5c0.3-0.4,0.9-0.7,1.4-0.7H308c0.5,0,1.1,0.2,1.4,0.7
		C309.7,180.9,309.8,181.5,309.7,182z M411.5,182.1l-33.7,118.7c-0.2,0.8-0.9,1.3-1.7,1.3h-41.2c-0.5,0-1.1-0.2-1.4-0.7
		c-0.3-0.4-0.5-1-0.4-1.5l26.5-118.7c0.2-0.8,0.9-1.4,1.7-1.4h48.4c0.6,0,1.1,0.3,1.4,0.7C411.6,181,411.7,181.6,411.5,182.1z"/>
</g>
</svg>
