<?xml version="1.0" encoding="utf-8"?>
<!-- Generator: Adobe Illustrator 21.0.1, SVG Export Plug-In . SVG Version: 6.00 Build 0)  -->
<svg version="1.1" id="Capa_1" xmlns="http://www.w3.org/2000/svg" xmlns:xlink="http://www.w3.org/1999/xlink" x="0px" y="0px"
	 viewBox="0 0 512 512" style="enable-background:new 0 0 512 512;" xml:space="preserve">
<style type="text/css">
	.st0{fill:#FFFFFF;}
</style>
<g>
	<g>
		<path class="st0" d="M408.5,207v-59.8H366v-32.3h-30v32.3h-42.5V207H271V93h-36.4V34h-48.7V0h-30v34h-48.7v59H70.8v419h370.3V207
			H408.5z M157.4,457.3h-30V427h30V457.3z M157.4,401.3h-30V371h30V401.3z M157.4,345.3h-30V315h30V345.3z M157.4,289.3h-30V259h30
			V289.3z M157.4,233.3h-30V203h30V233.3z M157.4,177.3h-30V147h30V177.3z M214.4,457.3h-30V427h30V457.3z M214.4,401.3h-30V371h30
			V401.3z M214.4,345.3h-30V315h30V345.3z M214.4,289.3h-30V259h30V289.3z M214.4,233.3h-30V203h30V233.3z M214.4,177.3h-30V147h30
			V177.3z M334.9,457.3h-30V427h30V457.3z M334.9,401.3h-30V371h30V401.3z M334.9,345.3h-30V315h30V345.3z M334.9,289.3h-30V259h30
			V289.3z M391.9,457.3h-30V427h30V457.3z M391.9,401.3h-30V371h30V401.3z M391.9,345.3h-30V315h30V345.3z M391.9,289.3h-30V259h30
			V289.3z"/>
	</g>
</g>
</svg>
