<?xml version="1.0" encoding="utf-8"?>
<!-- Generator: Adobe Illustrator 21.0.1, SVG Export Plug-In . SVG Version: 6.00 Build 0)  -->
<svg version="1.1" id="Layer_1" xmlns="http://www.w3.org/2000/svg" xmlns:xlink="http://www.w3.org/1999/xlink" x="0px" y="0px"
	 viewBox="0 0 512 512" style="enable-background:new 0 0 512 512;" xml:space="preserve">
<style type="text/css">
	.st0{fill:#FFFFFF;}
</style>
<g>
	<g>
		<path class="st0" d="M208.1,362.5c-15.6-10.1-36.4-5.6-46.5,10c10.1-15.6,5.6-36.4-10-46.5c-15.6-10.1-36.4-5.6-46.5,10
			c10.1-15.6,5.6-36.4-10-46.5c-15.6-10.1-36.4-5.6-46.5,10l-34.5,53.4c-10.1,15.6-5.6,36.4,10,46.5c15.6,10.1,36.4,5.6,46.5-10
			c-10.1,15.6-5.6,36.4,10,46.5c15.6,10.1,36.4,5.6,46.5-10c-10.1,15.6-5.6,36.4,10,46.5s36.4,5.6,46.5-10l34.5-53.4
			C228.1,393.4,223.7,372.6,208.1,362.5z"/>
	</g>
</g>
<g>
	<g>
		<path class="st0" d="M436.6,270.5l-0.9-0.6L264.3,158.3L237,199.8c-12.2,18.8-32.8,30-55.3,30c-12.7,0-25-3.6-35.7-10.5
			c-30.5-19.7-39.3-60.6-19.6-91l16.4-25.5L85.3,88.8L0,264.9l20.9,18l0.6-0.9c12.2-18.9,32.9-30.1,55.4-30.1
			c12.7,0,25,3.6,35.7,10.5c10.1,6.5,18.1,15.5,23.3,26c11.8,0.4,23.3,4.1,33.2,10.5c10.1,6.5,18.1,15.5,23.3,26
			c11.8,0.4,23.3,4.1,33.2,10.5c30.5,19.7,39.3,60.6,19.6,91.1l-18.3,28.3l28.3,18.8c15.6,10.1,36.4,5.6,46.5-10
			c10.1-15.6,5.6-36.4-10-46.5l11.4,7.4c15.6,10.1,36.4,5.6,46.5-10c10.1-15.6,5.6-36.4-10-46.5l11.4,7.4
			c15.6,10.1,36.4,5.6,46.5-10c10.1-15.6,5.6-36.4-10-46.5l11.4,7.4c15.6,10.1,36.4,5.6,46.5-10C455.4,301,451.3,280.8,436.6,270.5z
			"/>
	</g>
</g>
<g>
	<g>
		<path class="st0" d="M467.1,33L221,40.9l-67.4,104.7c-10.1,15.6-5.6,36.4,10,46.5c15.6,10.1,36.4,5.6,46.5-10l45-68.3l9.9,6.4
			l177.6,115.7l69.5-51.5L467.1,33z"/>
	</g>
</g>
</svg>
