<?xml version="1.0" encoding="utf-8"?>
<!-- Generator: Adobe Illustrator 21.0.1, SVG Export Plug-In . SVG Version: 6.00 Build 0)  -->
<svg version="1.1" id="Capa_1" xmlns="http://www.w3.org/2000/svg" xmlns:xlink="http://www.w3.org/1999/xlink" x="0px" y="0px"
	 viewBox="0 0 253.4 253.4" style="enable-background:new 0 0 253.4 253.4;" xml:space="preserve">
<style type="text/css">
	.st0{fill:#FFFFFF;}
</style>
<g>
	<polygon class="st0" points="43.6,14.7 20.1,14.7 12.8,150.8 51,150.8 	"/>
	<polygon class="st0" points="104.3,14.7 80.7,14.7 73.4,150.8 111.6,150.8 	"/>
	<path class="st0" d="M121.7,108.1v57.6H0v73h253.4v-154L121.7,108.1z M56.6,215.8H14.9v-27h41.7V215.8z M117.2,215.8H75.5v-27h41.7
		V215.8z M177.9,215.8h-41.7v-27h41.7V215.8z M177.9,168.9h-41.7v-27h41.7V168.9z M238.6,215.8h-41.7v-27h41.7V215.8z M238.6,168.9
		h-41.7v-27h41.7V168.9z"/>
</g>
</svg>
