<?xml version="1.0" encoding="utf-8"?>
<!-- Generator: Adobe Illustrator 21.0.1, SVG Export Plug-In . SVG Version: 6.00 Build 0)  -->
<svg version="1.1" id="Capa_1" xmlns="http://www.w3.org/2000/svg" xmlns:xlink="http://www.w3.org/1999/xlink" x="0px" y="0px"
	 viewBox="0 0 612 612" style="enable-background:new 0 0 612 612;" xml:space="preserve">
<style type="text/css">
	.st0{fill:#FFFFFF;}
</style>
<g>
	<path class="st0" d="M391.9,259.9c-0.7-6.1-3.1-11.7-6.6-16.3l24.5-152.2c0.9-5.7-2.7-11.1-8.3-12.4l-0.3-0.1
		c-5.6-1.3-11.2,2-12.9,7.5l-44.7,147.5c-11,5.5-18.7,16.8-18.7,30c0,18.6,15.1,33.7,33.6,33.7c3.5,0,6.7-0.7,9.9-1.6l93.3,48.5
		c5.1,2.7,11.5,1,14.6-3.9l0.1-0.2c3.2-4.9,2.1-11.3-2.4-14.9L391.9,259.9z M342,263.9c0-9.2,7.5-16.6,16.6-16.6
		c9.2,0,16.6,7.5,16.6,16.6c0,9.2-7.5,16.6-16.6,16.6C349.5,280.5,342,273,342,263.9z M612,263.9c0,112.7-73.9,208.3-175.8,241.2
		l0-36.1c82.8-31.4,141.8-111.5,141.8-205.1c0-120.9-98.4-219.3-219.3-219.3c-120.9,0-219.3,98.4-219.3,219.3c0,12.1,1,24,2.9,35.6
		h-34.4c-1.6-11.6-2.6-23.5-2.6-35.6c0-139.7,113.7-253.4,253.4-253.4C498.3,10.5,612,124.2,612,263.9z M402.8,444.4l-78-77.1
		c-4.9-4.9-11.7-7.7-18.6-7.7h-39.3v-14.7c0-11-8.9-19.8-19.9-19.8H19.8C8.9,325,0,333.9,0,344.9v132.8h410.6v-14.5
		C410.6,456.1,407.8,449.3,402.8,444.4z M368.8,447h-75.5c-1.7,0-3.1-1.4-3.1-3.1v-58.3c0-1.7,1.4-3.1,3.1-3.1h14.4
		c0.8,0,1.6,0.3,2.2,0.9l61,58.3C373,443.5,371.6,447,368.8,447z M410.7,488.7v43.9c0,11-8.9,19.8-19.8,19.8h-21.2
		c-3.8-26.3-26.5-46.6-53.9-46.6c-27.3,0-50,20.2-53.9,46.6H154.2c-3.8-26.3-26.5-46.6-53.9-46.6s-50,20.2-53.9,46.6H19.8
		c-11,0-19.8-8.9-19.8-19.8v-43.9H410.7z M315.7,519.2c-22.7,0-41.2,18.4-41.2,41.1c0,22.7,18.5,41.2,41.2,41.2
		c22.7,0,41.1-18.5,41.1-41.2C356.8,537.5,338.4,519.2,315.7,519.2z M315.7,580.9c-11.4,0-20.6-9.2-20.6-20.6
		c0-11.3,9.2-20.6,20.6-20.6c11.3,0,20.5,9.3,20.5,20.6C336.2,571.7,327,580.9,315.7,580.9z M100.3,519.2
		c-22.7,0-41.2,18.4-41.2,41.1c0,22.7,18.5,41.2,41.2,41.2c22.7,0,41.1-18.5,41.1-41.2C141.4,537.5,123,519.2,100.3,519.2z
		 M100.3,580.9c-11.4,0-20.6-9.2-20.6-20.6c0-11.3,9.2-20.6,20.6-20.6c11.3,0,20.6,9.3,20.6,20.6
		C120.9,571.7,111.6,580.9,100.3,580.9z"/>
</g>
</svg>
