<?xml version="1.0" encoding="utf-8"?>
<!-- Generator: Adobe Illustrator 21.0.1, SVG Export Plug-In . SVG Version: 6.00 Build 0)  -->
<svg version="1.1" id="Capa_1" xmlns="http://www.w3.org/2000/svg" xmlns:xlink="http://www.w3.org/1999/xlink" x="0px" y="0px"
	 viewBox="0 0 297 297" style="enable-background:new 0 0 297 297;" xml:space="preserve">
<style type="text/css">
	.st0{fill:#FFFFFF;}
</style>
<g>
	<path class="st0" d="M291.2,78.8l-138-69c-2.9-1.5-6.4-1.5-9.4,0l-138,69C2.2,80.5,0,84.1,0,88.1v189.8c0,5.8,4.7,10.5,10.5,10.5
		H45c5.8,0,10.5-4.7,10.5-10.5V115.8h186.1v162.1c0,5.8,4.7,10.5,10.5,10.5h34.5c5.8,0,10.5-4.7,10.5-10.5V88.1
		C297,84.1,294.8,80.5,291.2,78.8z M276.1,267.5h-13.6V105.4c0-5.8-4.7-10.5-10.5-10.5H45c-5.8,0-10.5,4.7-10.5,10.5v162.1H20.9
		V94.6l127.6-63.8l127.6,63.8V267.5z"/>
	<path class="st0" d="M217.5,132.6h-69c-4,0-7.3,3.3-7.3,7.3v61.7H79.5c-4,0-7.3,3.3-7.3,7.3v69c0,4,3.3,7.3,7.3,7.3h138
		c4,0,7.3-3.3,7.3-7.3v-138C224.8,135.8,221.6,132.6,217.5,132.6z M155.8,226.6l16.8,16.8l-16.8,16.8V226.6z M141.2,260.2
		l-16.8-16.8l16.8-16.8V260.2z M166.2,216.2h33.7L183,233.1L166.2,216.2z M166.2,201.6l16.8-16.8l16.8,16.8H166.2z M210.2,191.2
		l-16.8-16.8l16.8-16.8V191.2z M183,164l-16.8-16.8h33.7L183,164z M172.7,174.4l-16.8,16.8v-33.7L172.7,174.4z M114,233.1
		l-16.8-16.8h33.7L114,233.1z M103.6,243.4l-16.8,16.8v-33.7L103.6,243.4z M114,253.8l16.8,16.8H97.2L114,253.8z M183,253.8
		l16.8,16.8h-33.7L183,253.8z M193.4,243.4l16.8-16.8v33.7L193.4,243.4z"/>
</g>
</svg>
