<?xml version="1.0" encoding="utf-8"?>
<!-- Generator: Adobe Illustrator 21.0.1, SVG Export Plug-In . SVG Version: 6.00 Build 0)  -->
<svg version="1.1" id="Layer_1" xmlns="http://www.w3.org/2000/svg" xmlns:xlink="http://www.w3.org/1999/xlink" x="0px" y="0px"
	 viewBox="0 0 512 512" style="enable-background:new 0 0 512 512;" xml:space="preserve">
<style type="text/css">
	.st0{fill:#FFFFFF;}
</style>
<g>
	<g>
		<path class="st0" d="M361.7,278.3c-27.7,0-50.1,22.4-50.1,50.1s22.4,50.1,50.1,50.1H512V278.3H361.7z M361.7,345
			c-9.2,0-16.7-7.5-16.7-16.7s7.5-16.7,16.7-16.7s16.7,7.5,16.7,16.7S371,345,361.7,345z"/>
	</g>
</g>
<g>
	<g>
		<path class="st0" d="M361.7,244.9h83.5v-50.1c0-27.6-22.5-50.1-50.1-50.1H16.7c-9.2,0-16.7,7.5-16.7,16.7v333.9
			c0,9.2,7.5,16.7,16.7,16.7h378.4c27.6,0,50.1-22.5,50.1-50.1v-50.1h-83.5c-46,0-83.5-37.4-83.5-83.5
			C278.3,282.3,315.7,244.9,361.7,244.9z"/>
	</g>
</g>
<g>
	<g>
		<path class="st0" d="M461.9,144.7h-0.2c10.5,14,16.9,31.3,16.9,50.1v50.1H512v-50.1C512,167.2,489.5,144.7,461.9,144.7z"/>
	</g>
</g>
<g>
	<g>
		<path class="st0" d="M478.6,411.8v50.1c0,18.8-6.3,36.1-16.9,50.1h0.2c27.6,0,50.1-22.5,50.1-50.1v-50.1H478.6z"/>
	</g>
</g>
<g>
	<g>
		<path class="st0" d="M273.4,4.9c-6.5-6.5-17.1-6.5-23.6,0l-14.7,14.7l91.7,91.7h53L273.4,4.9z"/>
	</g>
</g>
<g>
	<g>
		<path class="st0" d="M173.2,4.9c-6.5-6.5-17.1-6.5-23.6,0L43.2,111.3h236.4L173.2,4.9z"/>
	</g>
</g>
</svg>
