<?xml version="1.0" encoding="utf-8"?>
<!-- Generator: Adobe Illustrator 21.0.1, SVG Export Plug-In . SVG Version: 6.00 Build 0)  -->
<svg version="1.1" id="Capa_1" xmlns="http://www.w3.org/2000/svg" xmlns:xlink="http://www.w3.org/1999/xlink" x="0px" y="0px"
	 viewBox="0 0 612 612" style="enable-background:new 0 0 612 612;" xml:space="preserve">
<style type="text/css">
	.st0{fill:#FFFFFF;}
</style>
<g>
	<path class="st0" d="M305,224.1v252.2l200.8-38.1V315.3c0-5.1,4.5-9.1,9.6-8.6l24.7,3.8c4.3,0.5,7.6,4.2,7.6,8.6v142.7
		c0,4.1-2.8,7.6-6.8,8.4l-219.8,47.3c-10.6,2.3-21.6,2.3-32.2,0.1L71.5,471.9c-3.9-0.8-6.7-4.2-6.8-8.2l-3.8-145
		c-0.1-4.5,3.3-8.4,7.9-8.8l184.7-16.2c3.2-0.3,6-2.3,7.2-5.3l27.8-67.6C292,212.1,305,214.6,305,224.1z M58.8,141.5l-58,123.9
		c-2.8,6.1,2,12.9,8.7,12.2l217.7-22c3.1-0.3,5.7-2.2,7-5.1l70-157.8L65,136.7C62.3,137.2,60,139,58.8,141.5z M304.2,92.7
		l74.1,162.7c1.3,2.8,4,4.8,7.1,5l217.2,17.5c6.5,0.5,11.2-6.2,8.5-12.2l-56.7-124.2c-1.2-2.6-3.5-4.4-6.3-4.9L304.2,92.7z"/>
</g>
</svg>
